<svg width="168" height="56" viewBox="0 0 168 56" fill="none" xmlns="http://www.w3.org/2000/svg">
<g clip-path="url(#clip0_1255_125)">
<path d="M154.189 0.000182H13.3486C12.8352 0.000182 12.328 0.000182 11.8159 0.002982C11.3873 0.005782 10.9621 0.013916 10.5294 0.020762C9.58932 0.0318245 8.65145 0.114529 7.72394 0.268156C6.79773 0.425128 5.90054 0.721064 5.06271 1.14596C4.2259 1.57444 3.46128 2.13122 2.7966 2.79608C2.12842 3.45907 1.57145 4.2254 1.14709 5.06561C0.72156 5.90413 0.426497 6.8027 0.27209 7.73025C0.116215 8.65664 0.0323377 9.59371 0.02121 10.5331C0.008218 10.9623 0.006846 11.393 0 11.8223V44.1822C0.006846 44.6169 0.008218 45.038 0.02121 45.4729C0.0323411 46.4122 0.116219 47.3492 0.27209 48.2755C0.42607 49.2036 0.721151 50.1027 1.14709 50.9416C1.57126 51.779 2.12831 52.5423 2.7966 53.2016C3.45876 53.8694 4.22387 54.4265 5.06271 54.8518C5.90053 55.2778 6.79763 55.5755 7.72394 55.7349C8.65161 55.8873 9.58938 55.97 10.5294 55.9824C10.9621 55.9919 11.3873 55.9974 11.8159 55.9974C12.3279 56.0002 12.8352 56.0002 13.3486 56.0002H154.189C154.692 56.0002 155.203 56.0002 155.706 55.9974C156.133 55.9974 156.57 55.9919 156.997 55.9824C157.935 55.9707 158.871 55.8879 159.797 55.7349C160.726 55.5744 161.627 55.2767 162.468 54.8518C163.306 54.4263 164.071 53.8692 164.732 53.2016C165.399 52.5397 165.957 51.777 166.387 50.9416C166.809 50.1021 167.102 49.2031 167.253 48.2755C167.41 47.3491 167.496 46.4123 167.513 45.4729C167.519 45.038 167.519 44.6169 167.519 44.1822C167.53 43.6736 167.53 43.1678 167.53 42.6509V13.3508C167.53 12.8381 167.53 12.3295 167.519 11.8223C167.519 11.393 167.519 10.9623 167.513 10.533C167.496 9.59357 167.41 8.65671 167.253 7.7302C167.101 6.80318 166.809 5.90469 166.387 5.06555C165.523 3.38146 164.152 2.01062 162.468 1.14583C161.627 0.721976 160.726 0.426119 159.797 0.26803C158.871 0.113726 157.935 0.0309929 156.997 0.020566C156.57 0.013734 156.133 0.00553 155.706 0.0028C155.203 0 154.692 0.000182 154.189 0.000182Z" fill="#A6A6A6"/>
<path d="M11.8232 54.7751C11.3967 54.7751 10.9804 54.7696 10.5572 54.7601C9.68049 54.7487 8.80584 54.6724 7.9404 54.5318C7.13343 54.3928 6.35169 54.1343 5.62097 53.7647C4.89694 53.3982 4.23658 52.9177 3.66517 52.3415C3.08548 51.7721 2.60287 51.1116 2.23645 50.3864C1.866 49.6564 1.60962 48.874 1.47625 48.0663C1.33223 47.1985 1.2543 46.3209 1.24315 45.4413C1.23428 45.146 1.22266 44.163 1.22266 44.163V11.8222C1.22266 11.8222 1.23503 10.8542 1.24322 10.5698C1.2539 9.69157 1.33137 8.81541 1.47496 7.94892C1.60858 7.13905 1.86515 6.35435 2.23581 5.62198C2.60088 4.89722 3.08081 4.2363 3.657 3.66485C4.23255 3.08797 4.89503 2.60494 5.62028 2.23339C6.34932 1.86503 7.12959 1.60832 7.93493 1.47188C8.8032 1.32987 9.6809 1.25309 10.5606 1.24219L11.8239 1.2251H155.7L156.978 1.24288C157.85 1.25324 158.72 1.32933 159.58 1.4705C160.393 1.60866 161.182 1.86716 161.919 2.23749C163.372 2.98628 164.554 4.17093 165.3 5.6254C165.665 6.35271 165.918 7.13101 166.049 7.93388C166.195 8.80749 166.276 9.69053 166.293 10.576C166.297 10.9725 166.297 11.3983 166.297 11.8222C166.308 12.3472 166.308 12.8469 166.308 13.3507V42.6508C166.308 43.1594 166.308 43.6557 166.297 44.1561C166.297 44.6114 166.297 45.0284 166.291 45.4577C166.275 46.3273 166.195 47.1946 166.052 48.0526C165.922 48.8661 165.667 49.6546 165.296 50.3906C164.927 51.108 164.447 51.7627 163.874 52.3306C163.302 52.9099 162.641 53.3932 161.915 53.7621C161.18 54.1344 160.393 54.3939 159.58 54.5318C158.715 54.6731 157.84 54.7494 156.963 54.7601C156.553 54.7696 156.124 54.7751 155.707 54.7751L154.189 54.7779L11.8232 54.7751Z" fill="black"/>
<path d="M34.6772 28.421C34.6922 27.2525 35.0026 26.1067 35.5794 25.0904C36.1563 24.0741 36.9808 23.2202 37.9764 22.6081C37.3439 21.7049 36.5096 20.9616 35.5396 20.4372C34.5697 19.9128 33.4908 19.6218 32.3887 19.5874C30.0378 19.3406 27.7587 20.9941 26.5607 20.9941C25.3395 20.9941 23.495 19.6119 21.5088 19.6527C20.224 19.6942 18.9719 20.0678 17.8745 20.7371C16.7771 21.4064 15.8717 22.3485 15.2467 23.4717C12.5391 28.1595 14.5587 35.049 17.1524 38.8383C18.45 40.6937 19.9666 42.7664 21.951 42.6929C23.8929 42.6123 24.6182 41.4546 26.9622 41.4546C29.2845 41.4546 29.9649 42.6929 31.9896 42.6461C34.0733 42.6123 35.3862 40.7824 36.6383 38.9094C37.5707 37.5872 38.2881 36.126 38.7641 34.5798C37.5535 34.0678 36.5204 33.2108 35.7937 32.1156C35.0669 31.0203 34.6786 29.7354 34.6772 28.421Z" fill="white"/>
<path d="M30.8538 17.0954C31.9899 15.7315 32.5496 13.9784 32.4141 12.2085C30.6783 12.3908 29.075 13.2204 27.9235 14.5319C27.3605 15.1727 26.9293 15.9181 26.6546 16.7256C26.3798 17.533 26.2669 18.3868 26.3223 19.2379C27.1905 19.2468 28.0494 19.0587 28.8343 18.6875C29.6193 18.3164 30.3097 17.772 30.8538 17.0954Z" fill="white"/>
<path d="M59.2242 37.9955H52.5975L51.0061 42.6945H48.1992L54.476 25.3093H57.3922L63.6689 42.6945H60.8142L59.2242 37.9955ZM53.2838 35.8271H58.5366L55.9471 28.201H55.8747L53.2838 35.8271Z" fill="white"/>
<path d="M77.2248 36.3578C77.2248 40.2966 75.1166 42.8273 71.9352 42.8273C71.1293 42.8695 70.3278 42.6838 69.6225 42.2916C68.9172 41.8994 68.3365 41.3165 67.9471 40.6097H67.8869V46.8878H65.2852V30.0195H67.8036V32.1277H67.8514C68.2587 31.4242 68.8492 30.8444 69.5598 30.4498C70.2705 30.0552 71.0749 29.8607 71.8873 29.8869C75.1043 29.8869 77.2248 32.4298 77.2248 36.3578ZM74.5506 36.3578C74.5506 33.7916 73.2244 32.1044 71.201 32.1044C69.2131 32.1044 67.876 33.8271 67.876 36.3578C67.876 38.9117 69.2131 40.622 71.201 40.622C73.2245 40.622 74.5506 38.9472 74.5506 36.3578Z" fill="white"/>
<path d="M91.1741 36.3578C91.1741 40.2966 89.0659 42.8273 85.8844 42.8273C85.0785 42.8694 84.277 42.6838 83.5717 42.2916C82.8664 41.8994 82.2858 41.3165 81.8963 40.6097H81.8361V46.8878H79.2344V30.0195H81.7527V32.1277H81.8006C82.2079 31.4242 82.7983 30.8444 83.509 30.4498C84.2197 30.0552 85.0241 29.8607 85.8365 29.8869C89.0536 29.8869 91.1741 32.4298 91.1741 36.3578ZM88.4998 36.3578C88.4998 33.7916 87.1737 32.1044 85.1502 32.1044C83.1623 32.1044 81.8252 33.8271 81.8252 36.3578C81.8252 38.9117 83.1623 40.622 85.1502 40.622C87.1737 40.622 88.4998 38.9472 88.4998 36.3578Z" fill="white"/>
<path d="M100.394 37.8507C100.587 39.5747 102.261 40.7067 104.55 40.7067C106.743 40.7067 108.321 39.5746 108.321 38.0201C108.321 36.6707 107.369 35.8627 105.116 35.309L102.863 34.7662C99.6706 33.9951 98.1885 32.5022 98.1885 30.0795C98.1885 27.0799 100.803 25.0195 104.514 25.0195C108.188 25.0195 110.706 27.0799 110.791 30.0795H108.165C108.008 28.3445 106.573 27.2973 104.478 27.2973C102.382 27.2973 100.947 28.3568 100.947 29.899C100.947 31.1281 101.863 31.8514 104.104 32.405L106.02 32.8753C109.587 33.7189 111.069 35.1518 111.069 37.6947C111.069 40.9472 108.478 42.9843 104.357 42.9843C100.502 42.9843 97.8986 40.9951 97.7305 37.8505L100.394 37.8507Z" fill="white"/>
<path d="M116.687 27.0198V30.0194H119.098V32.0797H116.687V39.0674C116.687 40.153 117.17 40.6588 118.23 40.6588C118.516 40.6538 118.802 40.6338 119.086 40.5986V42.6467C118.609 42.7357 118.125 42.776 117.64 42.767C115.074 42.767 114.073 41.8031 114.073 39.3449V32.0797H112.23V30.0194H114.073V27.0198H116.687Z" fill="white"/>
<path d="M120.492 36.3577C120.492 32.3696 122.841 29.8635 126.504 29.8635C130.179 29.8635 132.517 32.3695 132.517 36.3577C132.517 40.3567 130.191 42.8518 126.504 42.8518C122.818 42.8518 120.492 40.3567 120.492 36.3577ZM129.866 36.3577C129.866 33.6219 128.612 32.0073 126.504 32.0073C124.395 32.0073 123.143 33.6342 123.143 36.3577C123.143 39.1043 124.395 40.7067 126.504 40.7067C128.612 40.7067 129.866 39.1043 129.866 36.3577Z" fill="white"/>
<path d="M134.66 30.0194H137.142V32.1768H137.202C137.37 31.503 137.764 30.9075 138.32 30.4905C138.875 30.0734 139.557 29.8602 140.251 29.8867C140.55 29.8857 140.849 29.9182 141.142 29.9838V32.4174C140.764 32.3017 140.369 32.2486 139.973 32.2602C139.595 32.2448 139.218 32.3115 138.868 32.4555C138.519 32.5996 138.204 32.8176 137.947 33.0946C137.689 33.3717 137.495 33.7012 137.376 34.0605C137.258 34.4199 137.219 34.8005 137.262 35.1764V42.6945H134.66L134.66 30.0194Z" fill="white"/>
<path d="M153.141 38.9717C152.791 41.2727 150.55 42.8518 147.683 42.8518C143.996 42.8518 141.707 40.3813 141.707 36.4178C141.707 32.442 144.008 29.8635 147.574 29.8635C151.08 29.8635 153.286 32.2725 153.286 36.1157V37.0071H144.333V37.1643C144.292 37.6308 144.35 38.1007 144.505 38.5429C144.659 38.9851 144.906 39.3894 145.228 39.7289C145.551 40.0685 145.942 40.3356 146.375 40.5124C146.809 40.6892 147.275 40.7718 147.743 40.7545C148.358 40.8121 148.975 40.6697 149.502 40.3485C150.03 40.0273 150.439 39.5444 150.67 38.9717L153.141 38.9717ZM144.346 35.1887H150.683C150.706 34.7693 150.642 34.3495 150.496 33.9559C150.349 33.5622 150.123 33.203 149.831 32.9009C149.539 32.5989 149.188 32.3604 148.799 32.2005C148.411 32.0406 147.994 31.9627 147.574 31.9717C147.15 31.9692 146.73 32.0506 146.338 32.2112C145.946 32.3719 145.589 32.6086 145.289 32.9077C144.989 33.2067 144.751 33.5623 144.589 33.9538C144.427 34.3453 144.345 34.765 144.346 35.1887Z" fill="white"/>
<path d="M52.9549 12.2233C53.5003 12.1842 54.0477 12.2666 54.5574 12.4646C55.0672 12.6626 55.5267 12.9713 55.9027 13.3684C56.2787 13.7654 56.5619 14.241 56.7319 14.7608C56.9018 15.2806 56.9543 15.8316 56.8855 16.3741C56.8855 19.0429 55.4432 20.5769 52.9549 20.5769H49.9375V12.2233H52.9549ZM51.235 19.3955H52.8099C53.1997 19.4188 53.5898 19.3549 53.9517 19.2085C54.3137 19.062 54.6384 18.8367 54.9023 18.5489C55.1662 18.2611 55.3626 17.9181 55.4772 17.5448C55.5918 17.1716 55.6217 16.7774 55.5648 16.3911C55.6176 16.0064 55.5847 15.6147 55.4683 15.2442C55.3519 14.8736 55.155 14.5334 54.8917 14.2479C54.6285 13.9624 54.3053 13.7387 53.9454 13.5928C53.5855 13.4468 53.1977 13.3823 52.8099 13.4038H51.235V19.3955Z" fill="white"/>
<path d="M58.35 17.4221C58.3104 17.0078 58.3578 16.5898 58.4891 16.1949C58.6205 15.8 58.833 15.4369 59.1129 15.1289C59.3928 14.8209 59.734 14.5749 60.1146 14.4065C60.4952 14.2381 60.9068 14.1511 61.3229 14.1511C61.7391 14.1511 62.1507 14.2381 62.5313 14.4065C62.9119 14.5749 63.2531 14.8209 63.533 15.1289C63.8129 15.4369 64.0254 15.8 64.1568 16.1949C64.2881 16.5898 64.3355 17.0078 64.2959 17.4221C64.3363 17.8368 64.2895 18.2553 64.1584 18.6509C64.0274 19.0464 63.8151 19.4102 63.5351 19.7187C63.2551 20.0273 62.9136 20.2739 62.5327 20.4426C62.1517 20.6114 61.7396 20.6986 61.3229 20.6986C60.9063 20.6986 60.4942 20.6114 60.1132 20.4426C59.7323 20.2739 59.3908 20.0273 59.1108 19.7187C58.8308 19.4102 58.6185 19.0464 58.4875 18.6509C58.3564 18.2553 58.3096 17.8368 58.35 17.4221ZM63.0162 17.4221C63.0162 16.0556 62.4023 15.2564 61.325 15.2564C60.2436 15.2564 59.6352 16.0556 59.6352 17.4221C59.6352 18.7995 60.2436 19.5925 61.325 19.5925C62.4024 19.5925 63.0162 18.794 63.0162 17.4221Z" fill="white"/>
<path d="M72.2008 20.5768H70.9102L69.6072 15.9338H69.5088L68.2113 20.5768H66.933L65.1953 14.2727H66.4572L67.5865 19.0831H67.6795L68.9756 14.2727H70.1692L71.4652 19.0831H71.5637L72.6875 14.2727H73.9316L72.2008 20.5768Z" fill="white"/>
<path d="M75.3945 14.2727H76.5922V15.2741H76.6852C76.8429 14.9144 77.1089 14.6129 77.4461 14.4116C77.7833 14.2103 78.175 14.1192 78.5664 14.151C78.8731 14.1279 79.1811 14.1742 79.4676 14.2863C79.754 14.3984 80.0116 14.5736 80.2211 14.7988C80.4307 15.0239 80.5869 15.2934 80.6782 15.5871C80.7694 15.8809 80.7935 16.1914 80.7484 16.4957V20.5767H79.5043V16.8081C79.5043 15.795 79.0641 15.2912 78.144 15.2912C77.9357 15.2815 77.7278 15.317 77.5345 15.3951C77.3412 15.4733 77.1671 15.5923 77.0242 15.7441C76.8812 15.8958 76.7727 16.0767 76.7062 16.2742C76.6396 16.4718 76.6166 16.6815 76.6387 16.8888V20.5768H75.3945L75.3945 14.2727Z" fill="white"/>
<path d="M82.7305 11.8118H83.9746V20.5768H82.7305V11.8118Z" fill="white"/>
<path d="M85.7015 17.4219C85.6619 17.0076 85.7093 16.5896 85.8408 16.1947C85.9722 15.7998 86.1847 15.4367 86.4646 15.1287C86.7446 14.8207 87.0858 14.5746 87.4664 14.4063C87.847 14.2379 88.2586 14.1509 88.6748 14.1509C89.091 14.1509 89.5026 14.2379 89.8833 14.4063C90.2639 14.5746 90.6051 14.8207 90.885 15.1287C91.165 15.4367 91.3775 15.7998 91.5089 16.1947C91.6403 16.5896 91.6877 17.0076 91.6481 17.4219C91.6884 17.8367 91.6416 18.2552 91.5105 18.6508C91.3794 19.0463 91.1671 19.41 90.887 19.7186C90.607 20.0272 90.2656 20.2738 89.8846 20.4425C89.5036 20.6112 89.0915 20.6984 88.6748 20.6984C88.2581 20.6984 87.8461 20.6112 87.4651 20.4425C87.0841 20.2738 86.7426 20.0272 86.4626 19.7186C86.1826 19.41 85.9702 19.0463 85.8391 18.6508C85.7081 18.2552 85.6612 17.8367 85.7015 17.4219ZM90.3677 17.4219C90.3677 16.0554 89.7539 15.2563 88.6765 15.2563C87.5951 15.2563 86.9867 16.0554 86.9867 17.4219C86.9867 18.7994 87.5951 19.5923 88.6765 19.5923C89.7539 19.5923 90.3677 18.7939 90.3677 17.4219Z" fill="white"/>
<path d="M92.9609 18.7941C92.9609 17.6593 93.8059 17.0051 95.3057 16.9121L97.0133 16.8137V16.2696C97.0133 15.6038 96.573 15.2278 95.7227 15.2278C95.0281 15.2278 94.5469 15.4828 94.4088 15.9285H93.2043C93.3314 14.8456 94.35 14.1511 95.7801 14.1511C97.3606 14.1511 98.252 14.9379 98.252 16.2696V20.5769H97.0543V19.691H96.9559C96.7561 20.0088 96.4755 20.2678 96.1428 20.4417C95.8101 20.6156 95.4373 20.6981 95.0623 20.6808C94.7977 20.7083 94.5302 20.6801 94.2771 20.5979C94.024 20.5157 93.791 20.3814 93.593 20.2036C93.395 20.0259 93.2365 19.8086 93.1276 19.5658C93.0188 19.3231 92.962 19.0602 92.9609 18.7941ZM97.0133 18.2554V17.7284L95.4738 17.8268C94.6057 17.8849 94.2119 18.1802 94.2119 18.736C94.2119 19.3033 94.7041 19.6335 95.3809 19.6335C95.5792 19.6536 95.7795 19.6336 95.9699 19.5746C96.1603 19.5157 96.3369 19.4191 96.4892 19.2905C96.6415 19.1619 96.7664 19.004 96.8564 18.8262C96.9465 18.6484 96.9998 18.4543 97.0133 18.2554Z" fill="white"/>
<path d="M99.8867 17.422C99.8867 15.4301 100.911 14.1681 102.504 14.1681C102.897 14.15 103.289 14.2443 103.631 14.4402C103.973 14.6361 104.253 14.9253 104.437 15.2741H104.53V11.8118H105.774V20.5768H104.582V19.5808H104.483C104.285 19.9273 103.996 20.2129 103.647 20.4068C103.298 20.6007 102.902 20.6954 102.504 20.6807C100.9 20.6808 99.8867 19.4188 99.8867 17.422ZM101.172 17.422C101.172 18.7592 101.802 19.5637 102.856 19.5637C103.905 19.5637 104.553 18.7475 104.553 17.4275C104.553 16.1136 103.898 15.2858 102.856 15.2858C101.809 15.2858 101.172 16.0959 101.172 17.422Z" fill="white"/>
<path d="M110.92 17.4221C110.881 17.0078 110.928 16.5898 111.059 16.1949C111.191 15.8 111.403 15.4369 111.683 15.1289C111.963 14.8209 112.304 14.5749 112.685 14.4065C113.065 14.2381 113.477 14.1511 113.893 14.1511C114.309 14.1511 114.721 14.2381 115.102 14.4065C115.482 14.5749 115.823 14.8209 116.103 15.1289C116.383 15.4369 116.596 15.8 116.727 16.1949C116.858 16.5898 116.906 17.0078 116.866 17.4221C116.907 17.8368 116.86 18.2553 116.729 18.6509C116.598 19.0464 116.385 19.4102 116.105 19.7187C115.825 20.0273 115.484 20.2739 115.103 20.4426C114.722 20.6114 114.31 20.6986 113.893 20.6986C113.477 20.6986 113.065 20.6114 112.684 20.4426C112.303 20.2739 111.961 20.0273 111.681 19.7187C111.401 19.4102 111.189 19.0464 111.058 18.6509C110.927 18.2553 110.88 17.8368 110.92 17.4221ZM115.587 17.4221C115.587 16.0556 114.973 15.2564 113.895 15.2564C112.814 15.2564 112.206 16.0556 112.206 17.4221C112.206 18.7995 112.814 19.5925 113.895 19.5925C114.973 19.5925 115.587 18.794 115.587 17.4221Z" fill="white"/>
<path d="M118.535 14.2727H119.733V15.2741H119.826C119.984 14.9144 120.25 14.6129 120.587 14.4116C120.924 14.2103 121.316 14.1192 121.707 14.151C122.014 14.1279 122.322 14.1742 122.608 14.2863C122.895 14.3984 123.152 14.5736 123.362 14.7988C123.571 15.0239 123.728 15.2934 123.819 15.5871C123.91 15.8809 123.934 16.1914 123.889 16.4957V20.5767H122.645V16.8081C122.645 15.795 122.205 15.2912 121.285 15.2912C121.076 15.2815 120.868 15.317 120.675 15.3951C120.482 15.4733 120.308 15.5923 120.165 15.7441C120.022 15.8958 119.913 16.0767 119.847 16.2742C119.78 16.4718 119.757 16.6815 119.779 16.8888V20.5768H118.535V14.2727Z" fill="white"/>
<path d="M130.918 12.7031V14.3014H132.284V15.3493H130.918V18.5909C130.918 19.2513 131.19 19.5404 131.81 19.5404C131.968 19.5399 132.127 19.5303 132.284 19.5117V20.548C132.061 20.588 131.834 20.6093 131.607 20.6116C130.224 20.6116 129.673 20.1249 129.673 18.9095V15.3493H128.672V14.3013H129.673V12.7031H130.918Z" fill="white"/>
<path d="M133.984 11.8118H135.218V15.2858H135.316C135.481 14.9227 135.755 14.6195 136.099 14.4174C136.443 14.2153 136.841 14.1242 137.238 14.1565C137.543 14.1399 137.848 14.1908 138.132 14.3057C138.415 14.4206 138.669 14.5965 138.877 14.821C139.084 15.0454 139.239 15.3129 139.331 15.6043C139.423 15.8957 139.45 16.2038 139.409 16.5067V20.5768H138.164V16.8136C138.164 15.8067 137.695 15.2967 136.816 15.2967C136.602 15.2792 136.387 15.3086 136.186 15.3829C135.984 15.4571 135.802 15.5745 135.651 15.7267C135.499 15.879 135.383 16.0624 135.31 16.2642C135.237 16.466 135.21 16.6812 135.229 16.895V20.5768H133.984L133.984 11.8118Z" fill="white"/>
<path d="M146.663 18.8746C146.494 19.4508 146.128 19.9491 145.628 20.2826C145.129 20.616 144.528 20.7632 143.931 20.6984C143.516 20.7094 143.103 20.6298 142.722 20.4653C142.34 20.3008 141.999 20.0552 141.722 19.7456C141.445 19.436 141.238 19.0698 141.117 18.6725C140.996 18.2751 140.962 17.8561 141.019 17.4445C140.964 17.0317 140.998 16.6118 141.119 16.2133C141.24 15.8147 141.445 15.4468 141.721 15.1345C141.996 14.8222 142.336 14.5728 142.716 14.4031C143.097 14.2334 143.509 14.1474 143.926 14.151C145.68 14.151 146.738 15.3494 146.738 17.329V17.7631H142.286V17.8328C142.267 18.0642 142.296 18.297 142.372 18.5165C142.448 18.7359 142.568 18.9371 142.726 19.1072C142.885 19.2772 143.076 19.4123 143.29 19.5039C143.503 19.5954 143.733 19.6414 143.965 19.6388C144.263 19.6746 144.564 19.621 144.832 19.4849C145.099 19.3488 145.319 19.1363 145.465 18.8746L146.663 18.8746ZM142.286 16.843H145.471C145.486 16.6314 145.458 16.4189 145.386 16.2191C145.315 16.0193 145.202 15.8366 145.056 15.6828C144.91 15.529 144.734 15.4075 144.538 15.326C144.342 15.2446 144.131 15.205 143.919 15.2099C143.704 15.2072 143.49 15.2476 143.291 15.3287C143.091 15.4098 142.91 15.53 142.758 15.6822C142.606 15.8344 142.486 16.0155 142.405 16.2149C142.324 16.4142 142.284 16.6278 142.286 16.843Z" fill="white"/>
</g>
<defs>
<clipPath id="clip0_1255_125">
<rect width="167.53" height="56.0002" fill="white"/>
</clipPath>
</defs>
</svg>
