<svg width="107" height="48" viewBox="0 0 107 48" fill="none" xmlns="http://www.w3.org/2000/svg">
<path fill-rule="evenodd" clip-rule="evenodd" d="M8.62873 12.2559C7.97965 12.2559 7.41821 12.4724 6.94989 12.9054C6.48157 13.3384 6.24604 13.8619 6.24604 14.4703C6.24604 15.0787 6.48157 15.5995 6.94989 16.0298C7.41821 16.46 7.97965 16.6738 8.62873 16.6738C9.27781 16.6738 9.82556 16.46 10.2966 16.0298C10.7677 15.5995 11.0005 15.0815 11.0005 14.4703C11.0005 13.8591 10.7677 13.3384 10.3021 12.9054C9.83651 12.4724 9.27781 12.2559 8.62873 12.2559ZM4.69304 19.1293V20.0009C4.95048 20.0255 5.24353 20.0831 5.57765 20.1763C5.91178 20.2694 6.15278 20.3681 6.30615 20.4723C6.5143 20.6175 6.67862 20.7957 6.79912 21.0094C6.91963 21.2232 6.97988 21.4699 6.97988 21.7494V30.0728C6.97988 32.0872 6.90046 33.3972 6.74435 34.0002C6.58824 34.6031 6.3445 34.995 6.01585 35.1814C5.6379 34.2249 5.27091 33.5096 4.9094 33.0327C4.54789 32.5558 4.03575 32.3147 3.37024 32.3147C3.03337 32.3147 2.72937 32.3777 2.46098 32.501C2.19258 32.6244 1.99265 32.7751 1.86393 32.9532C1.69413 33.1615 1.58458 33.3616 1.53255 33.5562C1.48051 33.748 1.45312 33.9563 1.45312 34.1838C1.45312 34.8169 1.71604 35.3212 2.23914 35.6966C2.76498 36.0694 3.51265 36.2557 4.48216 36.2557C5.52288 36.2557 6.44857 36.0721 7.25923 35.7021C8.0699 35.3321 8.75732 34.8196 9.32697 34.1619C9.84733 33.5589 10.2472 32.8381 10.5293 31.994C10.8086 31.1499 10.951 30.3167 10.951 29.489V18.9978L10.7703 18.8169L4.69304 19.1293ZM23.8997 29.1658C24.0065 29.374 24.1736 29.5303 24.3981 29.6344H24.4064C24.5433 29.7002 24.7569 29.7386 25.05 29.7495C25.343 29.7632 25.6087 29.7687 25.8497 29.7687V30.6485C25.4964 30.8019 25.0828 30.9417 24.6008 31.0705C24.1188 31.1993 23.6121 31.2624 23.0753 31.2624C22.0894 31.2624 21.3664 31.1171 20.9008 30.8239C20.4379 30.5306 20.1202 30.1113 19.9532 29.5659H19.882C19.6108 29.84 19.3452 30.0729 19.0932 30.2648C18.8413 30.4566 18.5701 30.621 18.2798 30.7581C17.9019 30.9335 17.5404 31.0678 17.1898 31.1555C16.8392 31.2432 16.3518 31.287 15.7246 31.287C14.7907 31.287 13.9964 31.013 13.3364 30.4621C12.6764 29.9112 12.3477 29.1822 12.3477 28.2723C12.3477 27.7516 12.4189 27.3048 12.5641 26.9403C12.7065 26.5758 12.9119 26.2524 13.1776 25.9701C13.4186 25.7125 13.6979 25.5015 14.0156 25.3316C14.3333 25.1616 14.6811 25.0054 15.0591 24.8602C15.7821 24.5971 16.6503 24.3203 17.6636 24.0352C18.6769 23.7475 19.4164 23.4926 19.882 23.2678V22.1113C19.882 21.9112 19.8655 21.6454 19.8327 21.3165C19.7998 20.9876 19.7313 20.7108 19.6273 20.4861C19.5122 20.2312 19.337 20.0119 19.096 19.8365C18.855 19.6584 18.54 19.5707 18.1456 19.5707C17.7923 19.5707 17.4965 19.62 17.261 19.7214C17.0227 19.8228 16.8338 19.9242 16.6886 20.0284C16.7133 20.1901 16.7817 20.434 16.894 20.7629C17.0063 21.0918 17.0638 21.4097 17.0638 21.7139C17.0638 21.8509 17.0255 22.0208 16.9543 22.2264C16.8803 22.4319 16.7763 22.5936 16.6393 22.7142C16.4531 22.8732 16.2477 22.9993 16.0176 23.087C15.7876 23.1747 15.4343 23.2185 14.9605 23.2185C14.284 23.2185 13.7719 23.0568 13.4268 22.7307C13.079 22.4045 12.9064 21.9825 12.9064 21.459C12.9064 21.0095 13.0872 20.6039 13.4432 20.2476C13.802 19.8913 14.2347 19.5953 14.7496 19.3624C15.2535 19.1212 15.8369 18.9349 16.4942 18.8033C17.1515 18.669 17.7622 18.6032 18.3236 18.6032C19.1014 18.6032 19.8135 18.6498 20.4653 18.743C21.1171 18.8362 21.7032 19.028 22.2236 19.3158C22.722 19.5981 23.1164 20.0037 23.4095 20.5381C23.7025 21.0698 23.8477 21.7687 23.8477 22.6265C23.8477 23.5337 23.8285 24.6108 23.7929 25.855C23.7573 27.0993 23.7381 27.9187 23.7381 28.3107C23.7381 28.6724 23.7901 28.9575 23.8997 29.1658ZM19.0686 29.1356C19.3561 28.952 19.6081 28.73 19.8245 28.4641L19.8738 24.3723C19.4219 24.5258 18.9755 24.7012 18.5318 24.8985C18.0881 25.0959 17.7266 25.3042 17.4445 25.5207C17.146 25.7454 16.9132 26.0332 16.7434 26.384C16.5736 26.732 16.4887 27.1459 16.4887 27.62C16.4887 28.2476 16.6338 28.7026 16.9187 28.9849C17.2062 29.2672 17.5568 29.4069 17.9758 29.4069C18.4195 29.4069 18.7837 29.3165 19.0686 29.1356ZM54.7651 29.7302C54.5241 29.6261 54.3598 29.4863 54.2722 29.3082C54.1845 29.1328 54.1407 28.8943 54.1407 28.5983V22.6977C54.1407 21.4699 53.8148 20.4832 53.1602 19.7405C52.5057 18.9978 51.5252 18.6251 50.2161 18.6251C49.6711 18.6251 49.1562 18.6936 48.6769 18.8306C48.1949 18.9677 47.806 19.1321 47.5103 19.3239C47.2364 19.4993 46.9406 19.7296 46.6202 20.0091L46.5816 20.0431C46.2777 20.3108 46.0168 20.5406 45.8013 20.7326H45.752V18.9868L45.5712 18.806L39.8309 19.1184V19.9981C40.0965 20.0228 40.3375 20.0667 40.5594 20.1297C40.7812 20.1955 40.962 20.2749 41.1071 20.3709C41.3152 20.5243 41.4851 20.7189 41.6138 20.9601C41.7425 21.2013 41.8055 21.4452 41.8055 21.6946V28.7052C41.8055 29.0012 41.7562 29.2424 41.6603 29.4288C41.5645 29.6124 41.3865 29.7494 41.1318 29.8371C40.9866 29.8865 40.8141 29.9248 40.6087 29.9522C40.5793 29.9562 40.5505 29.959 40.5221 29.9616L40.522 29.9616C40.4922 29.9644 40.4628 29.9672 40.4334 29.9714C40.2143 29.9632 39.9924 29.9413 39.7679 29.9084C39.5241 29.8728 39.3269 29.807 39.1763 29.7083C38.9599 29.5713 38.7984 29.4041 38.6861 29.2095C38.5738 29.0122 38.519 28.5655 38.519 28.2832V18.9841L38.3382 18.8032L32.4883 19.1156V19.9954C32.7704 20.0118 33.0443 20.0365 33.3127 20.0667C33.5811 20.0995 33.7892 20.1626 33.9316 20.2585C34.1316 20.3955 34.2849 20.5709 34.389 20.7875C34.4931 21.004 34.5451 21.2506 34.5451 21.5219V28.0146C34.337 28.3517 34.0056 28.6696 33.551 28.9656C33.0963 29.2616 32.5869 29.4123 32.0173 29.4123C31.4476 29.4123 31.0286 29.215 30.7109 28.8231C30.3932 28.4312 30.2344 27.82 30.2344 26.9923V18.9841L30.1029 18.8032L24.2886 19.1156V19.9954C24.4967 20.0118 24.7268 20.0447 24.9815 20.0968C25.2362 20.1489 25.4443 20.2338 25.6032 20.3544C25.8031 20.5079 25.9619 20.6806 26.0824 20.8779C26.2029 21.0752 26.2632 21.3301 26.2632 21.6425V27.0636C26.2632 28.3955 26.5864 29.4288 27.23 30.1578C27.8736 30.8895 28.802 31.254 30.0125 31.254C30.7081 31.254 31.2395 31.202 31.6037 31.0978C31.968 30.9937 32.3541 30.832 32.7622 30.6155C33.1237 30.4236 33.4332 30.2071 33.6934 29.9714C33.8531 29.8267 34.015 29.6788 34.1796 29.5285C34.2829 29.4341 34.3874 29.3386 34.4931 29.2424H34.5643V30.821L34.745 30.9909L40.4827 30.8978H47.3131V30.018C47.1296 29.9933 46.9406 29.955 46.7461 29.8974C46.5544 29.8426 46.3928 29.7768 46.2641 29.7056C46.0806 29.6097 45.9464 29.4671 45.867 29.278C45.7876 29.0889 45.7465 28.856 45.7465 28.5737V22.1057C45.8424 21.9769 45.9629 21.8289 46.1025 21.659C46.2422 21.4891 46.4312 21.3274 46.664 21.1657C46.9296 20.982 47.2008 20.8395 47.4774 20.7436C47.754 20.6477 48.0553 20.5983 48.3757 20.5983C48.9618 20.5983 49.4082 20.8039 49.7094 21.2177C50.0107 21.6316 50.1613 22.2482 50.1613 23.0677V28.7052C50.1613 29.0341 50.1257 29.2835 50.0518 29.4507C49.9778 29.6179 49.8601 29.7467 49.6903 29.8371C49.578 29.8947 49.4137 29.933 49.1973 29.9577C49.0226 29.9776 48.8693 29.994 48.736 30.0082L48.7359 30.0082L48.6441 30.018V30.8978H55.8771V30.018C55.6361 29.9933 55.4224 29.955 55.2335 29.8974C55.0445 29.8426 54.8856 29.7851 54.7569 29.7275L54.7651 29.7302ZM62.7624 29.492C62.9815 29.492 63.2828 29.4755 63.6689 29.4426L63.6635 29.4454C64.0524 29.4125 64.3208 29.3769 64.4741 29.3357V30.347C63.9593 30.5718 63.4115 30.7746 62.8254 30.9555C62.2393 31.1364 61.5273 31.2268 60.6837 31.2268C59.4321 31.2268 58.5037 30.9226 57.8984 30.3114C57.2932 29.7003 56.9892 28.8315 56.9892 27.6996V20.3135H54.8229V19.0007H57.0385V15.3501H60.9384V19.0007H64.3208V20.3135H60.9631V26.9048C60.9631 27.8448 61.0918 28.5108 61.3547 28.9027C61.6176 29.2946 62.086 29.492 62.7624 29.492Z" fill="#005A44"/>
</svg>
