<svg width="116" height="21" viewBox="0 0 116 21" fill="none" xmlns="http://www.w3.org/2000/svg">
<g clip-path="url(#clip0_767_3)">
<path d="M21.8983 7.94203C21.7256 7.41218 21.2674 7.02697 20.7153 6.94656L15.1228 6.13393L12.6238 1.08448C12.129 0.0860962 10.4936 0.0860962 9.99877 1.08448L7.49976 6.13393L1.92047 6.94656C1.36995 7.02697 0.911745 7.41353 0.739021 7.9436C0.566296 8.47211 0.709821 9.0534 1.1094 9.44265L5.15596 13.3868L4.20137 18.9515C4.10771 19.5004 4.33322 20.0568 4.78401 20.3847C5.23637 20.7111 5.83518 20.7538 6.32708 20.4946L11.3107 17.8666L16.3089 20.4946C16.5228 20.6073 16.757 20.663 16.9897 20.663C17.2927 20.663 17.5957 20.5678 17.852 20.3849C18.303 20.0554 18.5283 19.5007 18.4346 18.9517L17.4816 13.387L21.5282 9.44287C21.9278 9.05475 22.0711 8.47211 21.8983 7.94203Z" fill="#005A44"/>
<path d="M45.3222 7.94203C45.1494 7.41218 44.6912 7.02697 44.1392 6.94656L38.5466 6.13393L36.0476 1.08448C35.5528 0.0860962 33.9174 0.0860962 33.4226 1.08448L30.9236 6.13393L25.3443 6.94656C24.7938 7.02697 24.3356 7.41353 24.1628 7.9436C23.9901 8.47211 24.1336 9.0534 24.5332 9.44265L28.5798 13.3868L27.6252 18.9515C27.5315 19.5004 27.757 20.0584 28.2078 20.3847C28.6589 20.7111 29.259 20.7538 29.7509 20.4946L34.7345 17.8666L39.7328 20.4946C39.9466 20.6073 40.1809 20.663 40.4136 20.663C40.7166 20.663 41.0196 20.5678 41.2758 20.3849C41.7269 20.0554 41.9521 19.5007 41.8585 18.9517L40.9055 13.387L44.952 9.44287C45.3516 9.05475 45.4949 8.47211 45.3222 7.94203Z" fill="#005A44"/>
<path d="M68.747 7.94203C68.5743 7.41218 68.1161 7.02697 67.564 6.94656L61.9714 6.13393L59.4724 1.08448C58.9776 0.0860962 57.3422 0.0860962 56.8474 1.08448L54.3484 6.13393L48.7691 6.94656C48.2186 7.02697 47.7604 7.41353 47.5877 7.9436C47.4149 8.47211 47.5585 9.0534 47.958 9.44265L52.0046 13.3868L51.05 18.9515C50.9563 19.5004 51.1819 20.0568 51.6326 20.3847C52.085 20.7111 52.6838 20.7538 53.1757 20.4946L58.1591 17.8666L63.1573 20.4946C63.3712 20.6073 63.6054 20.663 63.8381 20.663C64.1411 20.663 64.4441 20.5678 64.7004 20.3849C65.1514 20.0554 65.3767 19.5007 65.2831 18.9517L64.33 13.387L68.3766 9.44287C68.7764 9.05475 68.9197 8.47211 68.747 7.94203Z" fill="#005A44"/>
<path d="M92.1708 7.94203C91.9981 7.41218 91.5399 7.02697 90.9878 6.94656L85.3952 6.13393L82.8962 1.08448C82.4014 0.0860962 80.766 0.0860962 80.2712 1.08448L77.7722 6.13393L72.1929 6.94656C71.6424 7.02697 71.1842 7.41353 71.0115 7.9436C70.8388 8.47211 70.9823 9.0534 71.3819 9.44265L75.4284 13.3868L74.4738 18.9515C74.3802 19.5004 74.6057 20.0568 75.0565 20.3847C75.5088 20.7111 76.1076 20.7538 76.5995 20.4946L81.5829 17.8666L86.5812 20.4946C86.795 20.6073 87.0293 20.663 87.262 20.663C87.565 20.663 87.868 20.5678 88.1242 20.3849C88.5753 20.0554 88.8005 19.5007 88.7069 18.9517L87.7539 13.387L91.8004 9.44287C92.2 9.05475 92.3435 8.47211 92.1708 7.94203Z" fill="#005A44"/>
<path d="M115.596 7.94203C115.421 7.41218 114.965 7.02697 114.413 6.94656L108.82 6.13393L106.321 1.08448C105.826 0.0860962 104.191 0.0860962 103.696 1.08448L101.197 6.13393L95.6177 6.94656C95.0672 7.02697 94.609 7.41353 94.4363 7.9436C94.2636 8.47211 94.4071 9.0534 94.8067 9.44265L98.8532 13.3868L97.8986 18.9515C97.805 19.5004 98.0305 20.0568 98.4813 20.3847C98.736 20.5691 99.0376 20.6628 99.3406 20.6628C99.5749 20.6628 99.8092 20.6071 100.026 20.4943L105.009 17.8664L110.009 20.4943C110.501 20.7564 111.098 20.7124 111.551 20.3831C112 20.0552 112.226 19.5004 112.132 18.9513L111.179 13.3866L115.225 9.44242C115.625 9.05475 115.767 8.47211 115.596 7.94203Z" fill="#005A44"/>
</g>
<defs>
<clipPath id="clip0_767_3">
<rect width="115" height="20.3286" fill="white" transform="translate(0.666992 0.335693)"/>
</clipPath>
</defs>
</svg>
