<svg width="116" height="21" viewBox="0 0 116 21" fill="none" xmlns="http://www.w3.org/2000/svg">
<g clip-path="url(#clip0_767_4)">
<path d="M21.5644 7.94203C21.3916 7.41218 20.9334 7.02697 20.3813 6.94656L14.7888 6.13393L12.2898 1.08448C11.795 0.0860962 10.1596 0.0860962 9.66478 1.08448L7.16578 6.13393L1.58648 6.94656C1.03596 7.02697 0.577761 7.41353 0.405036 7.9436C0.232312 8.47211 0.375837 9.0534 0.775417 9.44265L4.82198 13.3868L3.86739 18.9515C3.77373 19.5004 3.99923 20.0568 4.45003 20.3847C4.90239 20.7111 5.5012 20.7538 5.99309 20.4946L10.9767 17.8666L15.975 20.4946C16.1888 20.6073 16.423 20.663 16.6557 20.663C16.9587 20.663 17.2617 20.5678 17.518 20.3849C17.969 20.0554 18.1943 19.5007 18.1007 18.9517L17.1476 13.387L21.1942 9.44287C21.5938 9.05475 21.7371 8.47211 21.5644 7.94203Z" fill="#005A44"/>
<path d="M44.9882 7.94203C44.8155 7.41218 44.3573 7.02697 43.8052 6.94656L38.2126 6.13393L35.7136 1.08448C35.2188 0.0860962 33.5834 0.0860962 33.0886 1.08448L30.5896 6.13393L25.0103 6.94656C24.4598 7.02697 24.0016 7.41353 23.8289 7.9436C23.6561 8.47211 23.7997 9.0534 24.1992 9.44265L28.2458 13.3868L27.2912 18.9515C27.1976 19.5004 27.4231 20.0584 27.8739 20.3847C28.3249 20.7111 28.925 20.7538 29.4169 20.4946L34.4006 17.8666L39.3988 20.4946C39.6126 20.6073 39.8469 20.663 40.0796 20.663C40.3826 20.663 40.6856 20.5678 40.9419 20.3849C41.3929 20.0554 41.6181 19.5007 41.5245 18.9517L40.5715 13.387L44.618 9.44287C45.0176 9.05475 45.1609 8.47211 44.9882 7.94203Z" fill="#005A44"/>
<path d="M68.413 7.94203C68.2403 7.41218 67.7821 7.02697 67.23 6.94656L61.6374 6.13393L59.1384 1.08448C58.6436 0.0860962 57.0082 0.0860962 56.5134 1.08448L54.0144 6.13393L48.4351 6.94656C47.8846 7.02697 47.4264 7.41353 47.2537 7.9436C47.0809 8.47211 47.2245 9.0534 47.6241 9.44265L51.6706 13.3868L50.716 18.9515C50.6224 19.5004 50.8479 20.0568 51.2987 20.3847C51.751 20.7111 52.3498 20.7538 52.8417 20.4946L57.8251 17.8666L62.8234 20.4946C63.0372 20.6073 63.2715 20.663 63.5042 20.663C63.8072 20.663 64.1102 20.5678 64.3664 20.3849C64.8174 20.0554 65.0427 19.5007 64.9491 18.9517L63.996 13.387L68.0426 9.44287C68.4424 9.05475 68.5857 8.47211 68.413 7.94203Z" fill="#005A44"/>
<path d="M91.8368 7.94203C91.6641 7.41218 91.2059 7.02697 90.6538 6.94656L85.0613 6.13393L82.5623 1.08448C82.0674 0.0860962 80.4321 0.0860962 79.9372 1.08448L77.4382 6.13393L71.8589 6.94656C71.3084 7.02697 70.8502 7.41353 70.6775 7.9436C70.5048 8.47211 70.6483 9.0534 71.0479 9.44265L75.0944 13.3868L74.1399 18.9515C74.0462 19.5004 74.2717 20.0568 74.7225 20.3847C75.1748 20.7111 75.7737 20.7538 76.2656 20.4946L81.249 17.8666L86.2472 20.4946C86.461 20.6073 86.6953 20.663 86.928 20.663C87.231 20.663 87.534 20.5678 87.7903 20.3849C88.2413 20.0554 88.4666 19.5007 88.3729 18.9517L87.4199 13.387L91.4664 9.44287C91.866 9.05475 92.0096 8.47211 91.8368 7.94203Z" fill="#005A44"/>
<path d="M115.262 7.94203C115.087 7.41218 114.631 7.02697 114.079 6.94656L108.486 6.13393L105.987 1.08448C105.492 0.0860962 103.857 0.0860962 103.362 1.08448L100.863 6.13393L95.2837 6.94656C94.7332 7.02697 94.275 7.41353 94.1023 7.9436C93.9296 8.47211 94.0731 9.0534 94.4727 9.44265L98.5192 13.3868L97.5647 18.9515C97.471 19.5004 97.6965 20.0568 98.1473 20.3847C98.402 20.5691 98.7037 20.6628 99.0067 20.6628C99.2409 20.6628 99.4752 20.6071 99.6917 20.4943L104.675 17.8664L109.675 20.4943C110.167 20.7564 110.764 20.7124 111.217 20.3831C111.666 20.0552 111.892 19.5004 111.798 18.9513L110.845 13.3866L114.891 9.44242C115.291 9.05475 115.433 8.47211 115.262 7.94203Z" fill="#005A44"/>
</g>
<defs>
<clipPath id="clip0_767_4">
<rect width="115" height="20.3286" fill="white" transform="translate(0.333008 0.335693)"/>
</clipPath>
</defs>
</svg>
