<svg width="31" height="30" viewBox="0 0 31 30" fill="none" xmlns="http://www.w3.org/2000/svg">
<g clip-path="url(#clip0_809_16)">
<path d="M23.3924 5.51774C22.4212 5.51774 21.6257 6.30478 21.6257 7.28441C21.6257 8.26404 22.4128 9.05109 23.3924 9.05109C24.372 9.05109 25.1591 8.26404 25.1591 7.28441C25.1591 6.30478 24.372 5.51774 23.3924 5.51774ZM15.5554 7.77841C11.4694 7.77841 8.14541 11.1024 8.14541 15.1884C8.14541 19.2744 11.4694 22.5984 15.5554 22.5984C19.6414 22.5984 22.9654 19.2744 22.9654 15.1884C22.9654 11.1024 19.6414 7.77841 15.5554 7.77841ZM15.5554 19.9358C12.9347 19.9358 10.808 17.8091 10.808 15.1884C10.808 12.5677 12.9347 10.441 15.5554 10.441C18.1761 10.441 20.3028 12.5677 20.3028 15.1884C20.3028 17.8091 18.1761 19.9358 15.5554 19.9358ZM30.501 9.03434C30.501 4.04411 26.4569 1.29779e-05 21.4666 1.29779e-05H9.54368C4.54507 -0.00835989 0.500977 4.03574 0.500977 9.02597V20.9489C0.500977 25.9392 4.54507 29.9833 9.53531 29.9833H21.4583C26.4485 29.9833 30.4926 25.9392 30.4926 20.9489V9.02597L30.501 9.03434ZM27.6709 20.9573C27.6709 24.3818 24.8912 27.1616 21.4666 27.1616H9.54368C6.11917 27.1616 3.33938 24.3818 3.33938 20.9573V9.03434C3.33938 5.60984 6.11917 2.83004 9.54368 2.83004H21.4666C24.8912 2.83004 27.6709 5.60984 27.6709 9.03434V20.9573Z" fill="#34302A"/>
</g>
<defs>
<clipPath id="clip0_809_16">
<rect width="30" height="29.9833" fill="white" transform="translate(0.500977)"/>
</clipPath>
</defs>
</svg>
