<svg width="37" height="24" viewBox="0 0 37 24" fill="none" xmlns="http://www.w3.org/2000/svg">
<g clip-path="url(#clip0_809_18)">
<path d="M36.5 7.46576C36.5 3.34742 32.9959 0 28.6609 0H8.33905C4.00414 0 0.5 3.33728 0.5 7.46576V16.5342C0.5 20.6526 4.00414 24 8.33905 24H28.6609C32.9852 24 36.5 20.6627 36.5 16.5342V7.46576ZM23.6763 12.4565L15.571 16.6864C15.2195 16.869 14.9 16.6255 14.9 16.2401V7.55706C14.9 7.1716 15.2302 6.92815 15.5817 7.12088L23.7402 11.574C24.1024 11.7667 24.0385 12.2637 23.6763 12.4565Z" fill="#34302A"/>
</g>
<defs>
<clipPath id="clip0_809_18">
<rect width="36" height="24" fill="white" transform="translate(0.5)"/>
</clipPath>
</defs>
</svg>
