<svg width="115" height="21" viewBox="0 0 115 21" fill="none" xmlns="http://www.w3.org/2000/svg">
<g clip-path="url(#clip0_767_2)">
<path d="M21.2314 7.94203C21.0586 7.41218 20.6004 7.02697 20.0483 6.94656L14.4558 6.13393L11.9568 1.08448C11.462 0.0860962 9.82659 0.0860962 9.33177 1.08448L6.83277 6.13393L1.25347 6.94656C0.702956 7.02697 0.244753 7.41353 0.0720284 7.9436C-0.100696 8.47211 0.0428292 9.0534 0.442409 9.44265L4.48897 13.3868L3.53438 18.9515C3.44072 19.5004 3.66623 20.0568 4.11702 20.3847C4.56938 20.7111 5.16819 20.7538 5.66008 20.4946L10.6437 17.8666L15.6419 20.4946C15.8558 20.6073 16.09 20.663 16.3227 20.663C16.6257 20.663 16.9287 20.5678 17.185 20.3849C17.636 20.0554 17.8613 19.5007 17.7677 18.9517L16.8146 13.387L20.8612 9.44287C21.2608 9.05475 21.4041 8.47211 21.2314 7.94203Z" fill="#005A44"/>
<path d="M44.6552 7.94203C44.4825 7.41218 44.0243 7.02697 43.4722 6.94656L37.8796 6.13393L35.3806 1.08448C34.8858 0.0860962 33.2504 0.0860962 32.7556 1.08448L30.2566 6.13393L24.6773 6.94656C24.1268 7.02697 23.6686 7.41353 23.4959 7.9436C23.3231 8.47211 23.4667 9.0534 23.8662 9.44265L27.9128 13.3868L26.9582 18.9515C26.8645 19.5004 27.0901 20.0584 27.5408 20.3847C27.9919 20.7111 28.592 20.7538 29.0839 20.4946L34.0675 17.8666L39.0658 20.4946C39.2796 20.6073 39.5139 20.663 39.7466 20.663C40.0496 20.663 40.3526 20.5678 40.6088 20.3849C41.0599 20.0554 41.2851 19.5007 41.1915 18.9517L40.2385 13.387L44.285 9.44287C44.6846 9.05475 44.8279 8.47211 44.6552 7.94203Z" fill="#005A44"/>
<path d="M68.08 7.94203C67.9073 7.41218 67.4491 7.02697 66.897 6.94656L61.3044 6.13393L58.8054 1.08448C58.3106 0.0860962 56.6752 0.0860962 56.1804 1.08448L53.6814 6.13393L48.1021 6.94656C47.5516 7.02697 47.0934 7.41353 46.9207 7.9436C46.7479 8.47211 46.8915 9.0534 47.291 9.44265L51.3376 13.3868L50.383 18.9515C50.2894 19.5004 50.5149 20.0568 50.9657 20.3847C51.418 20.7111 52.0168 20.7538 52.5087 20.4946L57.4921 17.8666L62.4904 20.4946C62.7042 20.6073 62.9384 20.663 63.1711 20.663C63.4741 20.663 63.7771 20.5678 64.0334 20.3849C64.4844 20.0554 64.7097 19.5007 64.6161 18.9517L63.663 13.387L67.7096 9.44287C68.1094 9.05475 68.2527 8.47211 68.08 7.94203Z" fill="#005A44"/>
<path d="M91.5038 7.94203C91.3311 7.41218 90.8729 7.02697 90.3208 6.94656L84.7282 6.13393L82.2292 1.08448C81.7344 0.0860962 80.0991 0.0860962 79.6042 1.08448L77.1052 6.13393L71.5259 6.94656C70.9754 7.02697 70.5172 7.41353 70.3445 7.9436C70.1718 8.47211 70.3153 9.0534 70.7149 9.44265L74.7614 13.3868L73.8068 18.9515C73.7132 19.5004 73.9387 20.0568 74.3895 20.3847C74.8418 20.7111 75.4406 20.7538 75.9325 20.4946L80.916 17.8666L85.9142 20.4946C86.128 20.6073 86.3623 20.663 86.595 20.663C86.898 20.663 87.201 20.5678 87.4573 20.3849C87.9083 20.0554 88.1336 19.5007 88.0399 18.9517L87.0869 13.387L91.1334 9.44287C91.533 9.05475 91.6765 8.47211 91.5038 7.94203Z" fill="#005A44"/>
<path d="M114.929 7.94203C114.754 7.41218 114.298 7.02697 113.746 6.94656L108.153 6.13393L105.654 1.08448C105.159 0.0860962 103.524 0.0860962 103.029 1.08448L100.53 6.13393L94.9507 6.94656C94.4002 7.02697 93.942 7.41353 93.7693 7.9436C93.5966 8.47211 93.7401 9.0534 94.1397 9.44265L98.1862 13.3868L97.2316 18.9515C97.138 19.5004 97.3635 20.0568 97.8143 20.3847C98.069 20.5691 98.3706 20.6628 98.6736 20.6628C98.9079 20.6628 99.1422 20.6071 99.3587 20.4943L104.342 17.8664L109.342 20.4943C109.834 20.7564 110.431 20.7124 110.884 20.3831C111.333 20.0552 111.559 19.5004 111.465 18.9513L110.512 13.3866L114.558 9.44242C114.958 9.05475 115.1 8.47211 114.929 7.94203Z" fill="#005A44"/>
</g>
<defs>
<clipPath id="clip0_767_2">
<rect width="115" height="20.3286" fill="white" transform="translate(0 0.335693)"/>
</clipPath>
</defs>
</svg>
