<svg width="335" height="31" viewBox="0 0 335 31" fill="none" xmlns="http://www.w3.org/2000/svg">
<g clip-path="url(#clip0_767_6)">
<g clip-path="url(#clip1_767_6)">
<path d="M334.604 18.2V28.88C334.604 29.14 334.394 29.36 334.124 29.36H328.614C328.354 29.36 328.134 29.15 328.134 28.88V18.95C328.134 16.34 327.204 14.55 324.854 14.55C323.064 14.55 322.004 15.75 321.534 16.92C321.364 17.34 321.324 17.91 321.324 18.5V28.89C321.324 29.15 321.114 29.37 320.844 29.37H315.334C315.074 29.37 314.854 29.16 314.854 28.89C314.864 26.25 314.924 13.41 314.864 10.4C314.864 10.13 315.074 9.91997 315.344 9.91997H320.844C321.104 9.91997 321.324 10.13 321.324 10.4V12.68C321.324 12.68 321.294 12.72 321.284 12.74H321.324V12.68C322.184 11.36 323.714 9.46997 327.154 9.46997C331.414 9.46997 334.604 12.25 334.604 18.23V18.2ZM305.294 29.36H310.804C311.064 29.36 311.284 29.15 311.284 28.88V10.38C311.284 10.12 311.074 9.89997 310.804 9.89997H305.294C305.034 9.89997 304.814 10.11 304.814 10.38V28.88C304.814 29.14 305.024 29.36 305.294 29.36Z" fill="#34302A"/>
<path d="M311.325 3.96C311.325 5.87 309.775 7.42 307.865 7.42C305.955 7.42 304.395 5.88 304.395 3.96C304.395 2.04 305.945 0.5 307.855 0.5C309.765 0.5 311.315 2.05 311.315 3.96H311.325Z" fill="#34302A"/>
</g>
<g clip-path="url(#clip2_767_6)">
<path d="M209.395 10.9658C209.395 6.84742 205.89 3.5 201.555 3.5H181.234C176.899 3.5 173.395 6.83728 173.395 10.9658V20.0342C173.395 24.1526 176.899 27.5 181.234 27.5H201.555C205.88 27.5 209.395 24.1627 209.395 20.0342V10.9658ZM196.571 15.9565L188.466 20.1864C188.114 20.369 187.795 20.1255 187.795 19.7401V11.0571C187.795 10.6716 188.125 10.4281 188.476 10.6209L196.635 15.074C196.997 15.2667 196.933 15.7637 196.571 15.9565Z" fill="#34302A"/>
</g>
<g clip-path="url(#clip3_767_6)">
<path d="M71.286 6.02604C70.3147 6.02604 69.5193 6.81309 69.5193 7.79271C69.5193 8.77234 70.3063 9.55939 71.286 9.55939C72.2656 9.55939 73.0526 8.77234 73.0526 7.79271C73.0526 6.81309 72.2656 6.02604 71.286 6.02604ZM63.449 8.28671C59.363 8.28671 56.039 11.6107 56.039 15.6967C56.039 19.7827 59.363 23.1067 63.449 23.1067C67.5349 23.1067 70.8589 19.7827 70.8589 15.6967C70.8589 11.6107 67.5349 8.28671 63.449 8.28671ZM63.449 20.4441C60.8282 20.4441 58.7015 18.3174 58.7015 15.6967C58.7015 13.076 60.8282 10.9493 63.449 10.9493C66.0697 10.9493 68.1964 13.076 68.1964 15.6967C68.1964 18.3174 66.0697 20.4441 63.449 20.4441ZM78.3945 9.54264C78.3945 4.55241 74.3504 0.508314 69.3602 0.508314H57.4372C52.4386 0.499941 48.3945 4.54404 48.3945 9.53427V21.4572C48.3945 26.4475 52.4386 30.4916 57.4289 30.4916H69.3518C74.3421 30.4916 78.3862 26.4475 78.3862 21.4572V9.53427L78.3945 9.54264ZM75.5645 21.4656C75.5645 24.8901 72.7847 27.6699 69.3602 27.6699H57.4372C54.0127 27.6699 51.2329 24.8901 51.2329 21.4656V9.54264C51.2329 6.11814 54.0127 3.33834 57.4372 3.33834H69.3602C72.7847 3.33834 75.5645 6.11814 75.5645 9.54264V21.4656Z" fill="#34302A"/>
</g>
<g clip-path="url(#clip4_767_6)">
<path fill-rule="evenodd" clip-rule="evenodd" d="M3.2617 15.114V29.137C3.2617 29.3396 3.41646 29.5 3.61195 29.5H8.63764C8.83313 29.5 8.98789 29.3396 8.98789 29.137V14.886H12.6289C12.8081 14.886 12.9628 14.7425 12.9791 14.5483L13.3294 10.2595C13.3457 10.0485 13.1828 9.86274 12.9791 9.86274H8.98789V6.81499C8.98789 6.09738 9.54992 5.52329 10.2341 5.52329H13.0443C13.2398 5.52329 13.3945 5.36288 13.3945 5.16026V0.863028C13.3945 0.660408 13.2398 0.5 13.0443 0.5H8.30368C5.51796 0.5 3.2617 2.83857 3.2617 5.72591V9.86274H0.744782C0.549293 9.86274 0.394531 10.0231 0.394531 10.2258V14.5146C0.394531 14.7172 0.549293 14.8776 0.744782 14.8776H3.25355V15.1055L3.2617 15.114Z" fill="#34302A"/>
</g>
<g clip-path="url(#clip5_767_6)">
<path fill-rule="evenodd" clip-rule="evenodd" d="M131.588 0.5C132.071 4.75926 134.378 7.29293 138.394 7.56229V12.3519C136.071 12.5875 134.026 11.8047 131.662 10.3232V19.2795C131.662 30.6515 119.612 34.2121 114.76 26.0556C111.652 20.8114 113.558 11.6027 123.546 11.2407V16.2912C122.786 16.4175 121.976 16.6111 121.231 16.8721C119.006 17.6465 117.746 19.0943 118.098 21.6532C118.769 26.5522 127.498 28 126.778 18.4293V0.508418H131.596L131.588 0.5Z" fill="#34302A"/>
</g>
<path d="M258.988 23.032C257.027 22.8841 256.205 21.9508 254.675 21.0452C253.987 24.5105 253.184 27.8649 251.281 30.1474C250.726 30.8128 249.607 30.4801 249.559 29.6207C249.273 24.0947 251.242 19.7145 252.218 15.0848C250.372 12.0908 252.438 6.05655 256.32 7.54432C261.101 9.37401 252.18 18.6795 258.165 19.8439C264.419 21.0544 266.972 9.36477 263.09 5.55754C257.486 0.0777251 246.786 5.44665 248.106 13.3106C248.355 14.8076 249.655 15.4914 249.493 16.97C249.387 17.8848 248.412 18.4208 247.542 18.0234C245.056 16.8961 244.291 14.4472 244.406 11.3238C244.625 5.36348 249.952 1.18663 255.287 0.604453C262.038 -0.125574 268.378 2.99783 269.248 9.13375C270.233 16.0644 266.198 23.5587 258.978 23.0227L258.988 23.032Z" fill="#34302A"/>
</g>
<defs>
<clipPath id="clip0_767_6">
<rect width="334.21" height="30" fill="white" transform="translate(0.394531 0.5)"/>
</clipPath>
<clipPath id="clip1_767_6">
<rect width="30.21" height="28.86" fill="white" transform="translate(304.395 0.5)"/>
</clipPath>
<clipPath id="clip2_767_6">
<rect width="36" height="24" fill="white" transform="translate(173.395 3.5)"/>
</clipPath>
<clipPath id="clip3_767_6">
<rect width="30" height="30" fill="white" transform="translate(48.3945 0.5)"/>
</clipPath>
<clipPath id="clip4_767_6">
<rect width="13" height="29" fill="white" transform="translate(0.394531 0.5)"/>
</clipPath>
<clipPath id="clip5_767_6">
<rect width="25" height="30" fill="white" transform="translate(113.395 0.5)"/>
</clipPath>
</defs>
</svg>
