<svg width="26" height="30" viewBox="0 0 26 30" fill="none" xmlns="http://www.w3.org/2000/svg">
<g clip-path="url(#clip0_809_19)">
<path d="M15.0932 22.532C13.133 22.3841 12.3106 21.4508 10.7807 20.5452C10.0922 24.0105 9.289 27.3649 7.38614 29.6474C6.83154 30.3128 5.71278 29.9801 5.66497 29.1207C5.3781 23.5947 7.34789 19.2145 8.32323 14.5848C6.47774 11.5908 8.54315 5.55655 12.4254 7.04432C17.2064 8.87401 8.28498 18.1795 14.2708 19.3439C20.5244 20.5544 23.0775 8.86477 19.1953 5.05754C13.5919 -0.422275 2.89196 4.94665 4.21153 12.8106C4.46014 14.3076 5.76059 14.9914 5.59803 16.47C5.49285 17.3848 4.51752 17.9208 3.64737 17.5234C1.16122 16.3961 0.396257 13.9472 0.511002 10.8238C0.73093 4.86348 6.05701 0.686626 11.3927 0.104453C18.1435 -0.625574 24.4831 2.49783 25.3533 8.63375C26.3382 15.5644 22.303 23.0587 15.0836 22.5227L15.0932 22.532Z" fill="#34302A"/>
</g>
<defs>
<clipPath id="clip0_809_19">
<rect width="25" height="30" fill="white" transform="translate(0.5)"/>
</clipPath>
</defs>
</svg>
