<svg width="14" height="29" viewBox="0 0 14 29" fill="none" xmlns="http://www.w3.org/2000/svg">
<g clip-path="url(#clip0_809_15)">
<path fill-rule="evenodd" clip-rule="evenodd" d="M3.36814 14.614V28.637C3.36814 28.8396 3.52291 29 3.7184 29H8.74408C8.93957 29 9.09433 28.8396 9.09433 28.637V14.386H12.7353C12.9145 14.386 13.0693 14.2425 13.0856 14.0483L13.4358 9.75953C13.4521 9.54847 13.2892 9.36274 13.0856 9.36274H9.09433V6.31499C9.09433 5.59738 9.65636 5.02329 10.3406 5.02329H13.1507C13.3462 5.02329 13.501 4.86288 13.501 4.66026V0.363028C13.501 0.160408 13.3462 0 13.1507 0H8.41012C5.62441 0 3.36814 2.33857 3.36814 5.22591V9.36274H0.851227C0.655738 9.36274 0.500977 9.52314 0.500977 9.72577V14.0146C0.500977 14.2172 0.655738 14.3776 0.851227 14.3776H3.36V14.6055L3.36814 14.614Z" fill="#34302A"/>
</g>
<defs>
<clipPath id="clip0_809_15">
<rect width="13" height="29" fill="white" transform="translate(0.500977)"/>
</clipPath>
</defs>
</svg>
