<svg width="120" height="101" viewBox="0 0 120 101" fill="none" xmlns="http://www.w3.org/2000/svg">
<g clip-path="url(#clip0_701_145)">
<path fill-rule="evenodd" clip-rule="evenodd" d="M39.4495 19.9904C39.4495 8.83745 48.4542 -0.199219 59.5563 -0.199219C70.6635 -0.199219 79.6631 8.8426 79.6631 19.9904C79.6631 34.2733 60.9629 48.9856 60.307 49.5016C60.2968 49.5096 60.291 49.5142 60.2896 49.5153C60.0281 49.7264 59.7922 49.9118 59.5563 49.9118C59.3431 49.9118 59.1802 49.7876 58.8773 49.5567C58.8597 49.5433 58.8416 49.5295 58.823 49.5153C58.7358 49.4484 39.4495 34.4954 39.4495 19.9904ZM51.8746 27.6831C55.5309 31.3545 61.1357 31.8642 65.3458 29.2279L70.7866 31.1485L68.8328 25.7265C71.4584 21.4991 70.9507 15.8711 67.2944 12.1998C63.0331 7.92606 56.1308 7.92606 51.8746 12.1998C47.6184 16.4787 47.6184 23.4094 51.8746 27.6831ZM10.2919 46.9305C11.1687 46.1169 12.22 45.7101 13.4353 45.7101C14.6506 45.7101 15.6967 46.1169 16.5685 46.9305C17.4403 47.744 17.8761 48.7224 17.8761 49.8706C17.8761 51.0189 17.4403 51.992 16.5582 52.8004C15.6762 53.6089 14.6506 54.0105 13.4353 54.0105C12.22 54.0105 11.1687 53.6089 10.2919 52.8004C9.41497 51.992 8.97396 51.0137 8.97396 49.8706C8.97396 48.7275 9.41497 47.744 10.2919 46.9305ZM6.0664 60.2615V58.6241L17.4454 58.0371L17.7838 58.3769V78.0877C17.7838 79.6427 17.5172 81.208 16.9941 82.7939C16.4659 84.3799 15.7173 85.7341 14.7429 86.8669C13.6763 88.1027 12.3892 89.0655 10.8713 89.7607C9.35343 90.4558 7.62018 90.8008 5.67155 90.8008C3.85624 90.8008 2.4563 90.4506 1.47173 89.7504C0.492286 89.0449 0 88.0975 0 86.9081C0 86.4807 0.0512798 86.0894 0.148711 85.7289C0.246143 85.3633 0.451262 84.9874 0.769197 84.5961C1.01021 84.2614 1.38455 83.9782 1.8871 83.7465C2.38964 83.5148 2.95884 83.3964 3.58959 83.3964C4.83568 83.3964 5.79462 83.8495 6.47151 84.7454C7.1484 85.6414 7.83555 86.9853 8.54321 88.7823C9.15857 88.4322 9.61496 87.6959 9.90726 86.5631C10.1996 85.4303 10.3483 82.969 10.3483 79.1844V63.5466C10.3483 63.0214 10.2354 62.558 10.0098 62.1563C9.78419 61.7547 9.47651 61.42 9.08678 61.1471C8.79961 60.9515 8.34835 60.7661 7.72274 60.591C7.09712 60.416 6.54843 60.3078 6.0664 60.2615ZM42.9622 78.3606C42.5417 78.1649 42.2289 77.8714 42.0289 77.4801C41.8238 77.0887 41.7264 76.5532 41.7264 75.8736C41.7264 75.1372 41.7623 73.5976 41.8289 71.26C41.8956 68.9223 41.9315 66.8987 41.9315 65.1943C41.9315 63.5827 41.6597 62.2696 41.111 61.2707C40.5623 60.2666 39.8239 59.5046 38.8906 58.9742C37.9163 58.4336 36.8189 58.0731 35.5984 57.898C34.378 57.723 33.0447 57.6354 31.5884 57.6354C30.5371 57.6354 29.3936 57.759 28.1629 58.0113C26.9322 58.2585 25.8399 58.6086 24.8964 59.0617C23.9323 59.4994 23.1221 60.0555 22.4503 60.7249C21.7837 61.3943 21.4452 62.1563 21.4452 63.0008C21.4452 63.9843 21.7683 64.7772 22.4195 65.39C23.0657 66.0027 24.0246 66.3065 25.2912 66.3065C26.1784 66.3065 26.8399 66.2241 27.2706 66.0594C27.7014 65.8946 28.086 65.6577 28.4347 65.3591C28.6911 65.1325 28.8859 64.8287 29.0244 64.4426C29.1577 64.0564 29.2295 63.7371 29.2295 63.4797C29.2295 62.9081 29.1218 62.3108 28.9116 61.6929C28.7013 61.075 28.5731 60.6168 28.527 60.313C28.7987 60.1173 29.1526 59.9268 29.5987 59.7363C30.0397 59.5458 30.5935 59.4531 31.255 59.4531C31.9935 59.4531 32.5832 59.6178 33.0345 59.9525C33.4857 60.2821 33.8139 60.694 34.0293 61.1729C34.2241 61.5951 34.3523 62.1152 34.4139 62.7331C34.4754 63.3509 34.5062 63.8504 34.5062 64.2263V66.3992C33.6344 66.8214 32.2499 67.3003 30.3525 67.841C28.4552 68.3765 26.8296 68.8965 25.4758 69.3908C24.7682 69.6637 24.1169 69.9572 23.5221 70.2765C22.9272 70.5957 22.4042 70.9922 21.9529 71.4762C21.4555 72.0066 21.0709 72.6142 20.8042 73.299C20.5324 73.9838 20.3991 74.8231 20.3991 75.8015C20.3991 77.511 21.0145 78.8806 22.2503 79.9156C23.4862 80.9506 24.9733 81.4655 26.7219 81.4655C27.8962 81.4655 28.809 81.3831 29.4654 81.2183C30.1218 81.0535 30.7987 80.8012 31.5063 80.4717C32.0499 80.2142 32.5576 79.9053 33.0293 79.5448C33.5011 79.1844 33.9985 78.7467 34.5062 78.2318H34.6395C34.9523 79.2565 35.5472 80.0443 36.4138 80.5953C37.2856 81.1462 38.6393 81.4191 40.4854 81.4191C41.4905 81.4191 42.4392 81.3007 43.3417 81.0587C44.2442 80.8167 45.0185 80.5541 45.6801 80.2657V78.6129C45.2288 78.6129 44.7314 78.6026 44.1827 78.5768C43.634 78.5562 43.234 78.4841 42.9776 78.3606H42.9622ZM34.3985 76.1619C33.9934 76.6614 33.5216 77.0784 32.9832 77.4234C32.4499 77.7633 31.7678 77.9332 30.9371 77.9332C30.1525 77.9332 29.4962 77.6706 28.9577 77.1402C28.4244 76.6099 28.1526 75.7551 28.1526 74.576C28.1526 73.6852 28.3116 72.9077 28.6295 72.2537C28.9475 71.5947 29.3833 71.054 29.9423 70.6318C30.4705 70.225 31.1474 69.8336 31.9781 69.4629C32.8088 69.0922 33.6447 68.7626 34.4908 68.4743L34.3985 76.1619ZM98.8983 77.7478C99.0624 78.0825 99.37 78.3451 99.8213 78.5408L99.8059 78.5356C100.047 78.6438 100.344 78.7519 100.698 78.8549C101.052 78.963 101.452 79.0351 101.903 79.0814V80.7343H88.3603V79.0814L88.5313 79.0631C88.7811 79.0364 89.0685 79.0056 89.3961 78.9681C89.8012 78.9218 90.1089 78.8497 90.3192 78.7416C90.6371 78.5717 90.8576 78.3297 90.9961 78.0156C91.1345 77.7015 91.2012 77.2329 91.2012 76.615V66.0233C91.2012 64.4837 90.9191 63.3252 90.3551 62.5477C89.791 61.7702 88.9551 61.384 87.8577 61.384C87.2578 61.384 86.6937 61.4767 86.1758 61.6569C85.6578 61.8371 85.1502 62.1049 84.6527 62.4498C84.2169 62.7536 83.863 63.0574 83.6015 63.3767C83.34 63.6959 83.1144 63.974 82.9349 64.216V76.3679C82.9349 76.8982 83.0118 77.3359 83.1605 77.6912C83.3092 78.0465 83.5605 78.3142 83.9041 78.4944C84.1451 78.6283 84.4476 78.7519 84.8066 78.8549C85.1707 78.963 85.5245 79.0351 85.8681 79.0814V80.7343H73.0789L62.3358 80.9094L61.9973 80.5901V77.6242H61.864C61.666 77.8052 61.4702 77.9846 61.2765 78.1622C60.9686 78.4445 60.6657 78.7221 60.3666 78.9939C59.8795 79.4367 59.3 79.8435 58.6231 80.2039C57.8591 80.6107 57.136 80.9145 56.454 81.1102C55.772 81.3058 54.7771 81.4037 53.4746 81.4037C51.2081 81.4037 49.4697 80.7188 48.2646 79.344C47.0595 77.9744 46.4544 76.0332 46.4544 73.5307V63.3458C46.4544 62.7588 46.3416 62.2799 46.116 61.9092C45.8904 61.5385 45.5929 61.2141 45.2186 60.9257C44.9212 60.6992 44.5314 60.5395 44.0545 60.4417C43.5776 60.3439 43.1469 60.2821 42.7572 60.2512V58.5983L53.6439 58.0113L53.89 58.3512V73.3968C53.89 74.9519 54.1874 76.1001 54.7823 76.8364C55.3771 77.5727 56.1617 77.9435 57.2283 77.9435C58.2949 77.9435 59.2487 77.6603 60.1 77.1042C60.9512 76.5481 61.5717 75.9508 61.9614 75.3174V63.1192C61.9614 62.6095 61.864 62.146 61.6691 61.7393C61.4743 61.3325 61.1871 61.0029 60.8128 60.7455C60.5461 60.5653 60.1564 60.4468 59.6538 60.3851C59.1513 60.3284 58.6385 60.2821 58.1103 60.2512V58.5983L69.0637 58.0113L69.4021 58.3512V75.8221C69.4021 76.3524 69.5047 77.1917 69.7149 77.5624C69.9252 77.928 70.2277 78.2421 70.6329 78.4996C70.9149 78.6849 71.2841 78.8085 71.7405 78.8755C72.161 78.9373 72.5764 78.9784 72.9866 78.9939C73.0417 78.986 73.0969 78.9808 73.1527 78.9755C73.2059 78.9705 73.2597 78.9654 73.3148 78.9578C73.6994 78.9064 74.0224 78.8343 74.2942 78.7416C74.7711 78.5768 75.1045 78.3194 75.2839 77.9744C75.4634 77.6242 75.5557 77.1711 75.5557 76.615V63.4436C75.5557 62.9751 75.4378 62.5168 75.1968 62.0637C74.9557 61.6105 74.6378 61.245 74.2481 60.9566C73.9763 60.7764 73.6378 60.6271 73.2225 60.5035C72.8071 60.3851 72.3559 60.3027 71.8584 60.2563V58.6035L82.6067 58.0165L82.9451 58.3563V61.6363H83.0374C83.4412 61.2753 83.9302 60.8431 84.4997 60.3397L84.5001 60.3393L84.5707 60.2769C85.1707 59.7517 85.7245 59.3192 86.2373 58.9897C86.7911 58.6292 87.5193 58.3203 88.4218 58.0628C89.3192 57.8054 90.2833 57.6766 91.3037 57.6766C93.7549 57.6766 95.5907 58.3769 96.8163 59.7723C98.0419 61.1677 98.6521 63.0214 98.6521 65.3282V76.4142C98.6521 76.9703 98.7342 77.4183 98.8983 77.7478ZM116.492 78.0001C115.769 78.0619 115.205 78.0928 114.795 78.0928C113.528 78.0928 112.652 77.7221 112.159 76.9857C111.667 76.2494 111.426 74.9982 111.426 73.2321V60.8485H117.713V58.3821H111.38V51.5235H104.078V58.3821H99.929V60.8485H103.985V74.7253C103.985 76.8519 104.554 78.4841 105.688 79.6324C106.821 80.7806 108.559 81.3522 110.903 81.3522C112.482 81.3522 113.816 81.1823 114.913 80.8424C116.01 80.5026 117.036 80.1216 118 79.6993V77.7993C117.713 77.8765 117.21 77.9435 116.482 78.0053L116.492 78.0001Z" fill="#34302A"/>
</g>
<defs>
<clipPath id="clip0_701_145">
<rect width="120" height="101" fill="white"/>
</clipPath>
</defs>
</svg>
